<svg width="256" height="256" viewBox="0 0 256 256" fill="none" xmlns="http://www.w3.org/2000/svg">
  <rect x="76" y="24" width="16" height="32" rx="8" fill="#C9CDD6"/>
  <rect x="164" y="24" width="16" height="32" rx="8" fill="#C9CDD6"/>
  <rect x="28" y="56" width="200" height="184" rx="22" stroke="#C9CDD6" stroke-width="12" fill="none"/>
  <line x1="40" y1="106" x2="216" y2="106" stroke="#C9CDD6" stroke-width="10" stroke-linecap="round"/>
  <rect x="44" y="116" width="48" height="42" rx="8" stroke="#C9CDD6" stroke-width="7" fill="none"/>
  <rect x="104" y="116" width="48" height="42" rx="8" stroke="#C9CDD6" stroke-width="7" fill="none"/>
  <rect x="164" y="116" width="48" height="42" rx="8" stroke="#C9CDD6" stroke-width="7" fill="none"/>
  <rect x="44" y="174" width="48" height="42" rx="8" stroke="#C9CDD6" stroke-width="7" fill="none"/>
  <rect x="104" y="174" width="48" height="42" rx="8" stroke="#8B5CF6" stroke-width="7" fill="none"/>
  <rect x="164" y="174" width="48" height="42" rx="8" stroke="#C9CDD6" stroke-width="7" fill="none"/>
  <rect x="52" y="142" width="32" height="5" rx="2" fill="#4ade80"/>
  <rect x="52" y="149" width="20" height="5" rx="2" fill="#8B5CF6"/>
  <rect x="172" y="148" width="28" height="5" rx="2" fill="#60a5fa"/>
  <rect x="52" y="205" width="22" height="5" rx="2" fill="#8B5CF6"/>
  <rect x="112" y="192" width="32" height="5" rx="2" fill="#4ade80"/>
  <rect x="112" y="199" width="28" height="5" rx="2" fill="#8B5CF6"/>
  <rect x="112" y="206" width="18" height="5" rx="2" fill="#60a5fa"/>
  <rect x="172" y="205" width="26" height="5" rx="2" fill="#8B5CF6"/>
</svg>